<svg width="37" height="52" viewBox="0 0 37 52" fill="none" xmlns="http://www.w3.org/2000/svg">
<mask id="mask0_428_10" style="mask-type:alpha" maskUnits="userSpaceOnUse" x="0" y="0" width="37" height="52">
<rect width="37" height="52" fill="#D9D9D9"/>
</mask>
<g mask="url(#mask0_428_10)">
<path d="M19.24 48.6C16.6 48.6 14.3 48.1 12.34 47.1C10.42 46.1 8.92 44.66 7.84 42.78C6.8 40.86 6.28 38.6 6.28 36V16.2C6.28 13.56 6.8 11.3 7.84 9.42C8.92 7.54 10.42 6.1 12.34 5.1C14.3 4.1 16.6 3.6 19.24 3.6C21.88 3.6 24.16 4.12 26.08 5.16C28 6.16 29.48 7.6 30.52 9.48C31.56 11.36 32.08 13.6 32.08 16.2H26.68C26.68 13.72 26.02 11.82 24.7 10.5C23.42 9.14 21.6 8.46 19.24 8.46C16.88 8.46 15.02 9.12 13.66 10.44C12.34 11.76 11.68 13.66 11.68 16.14V36C11.68 38.48 12.34 40.4 13.66 41.76C15.02 43.12 16.88 43.8 19.24 43.8C21.6 43.8 23.42 43.12 24.7 41.76C26.02 40.4 26.68 38.48 26.68 36V30.6H17.8V25.68H32.08V36C32.08 38.56 31.56 40.8 30.52 42.72C29.48 44.6 28 46.06 26.08 47.1C24.16 48.1 21.88 48.6 19.24 48.6Z" fill="#1A74E2"/>
<path d="M18.24 47.6C15.6 47.6 13.3 47.1 11.34 46.1C9.42 45.1 7.92 43.66 6.84 41.78C5.8 39.86 5.28 37.6 5.28 35V15.2C5.28 12.56 5.8 10.3 6.84 8.42C7.92 6.54 9.42 5.1 11.34 4.1C13.3 3.1 15.6 2.6 18.24 2.6C20.88 2.6 23.16 3.12 25.08 4.16C27 5.16 28.48 6.6 29.52 8.48C30.56 10.36 31.08 12.6 31.08 15.2H25.68C25.68 12.72 25.02 10.82 23.7 9.5C22.42 8.14 20.6 7.46 18.24 7.46C15.88 7.46 14.02 8.12 12.66 9.44C11.34 10.76 10.68 12.66 10.68 15.14V35C10.68 37.48 11.34 39.4 12.66 40.76C14.02 42.12 15.88 42.8 18.24 42.8C20.6 42.8 22.42 42.12 23.7 40.76C25.02 39.4 25.68 37.48 25.68 35V29.6H16.8V24.68H31.08V35C31.08 37.56 30.56 39.8 29.52 41.72C28.48 43.6 27 45.06 25.08 46.1C23.16 47.1 20.88 47.6 18.24 47.6Z" fill="url(#paint0_linear_428_10)"/>
</g>
<defs>
<linearGradient id="paint0_linear_428_10" x1="18" y1="-14" x2="18" y2="65" gradientUnits="userSpaceOnUse">
<stop stop-color="#6BD0FF"/>
<stop offset="1" stop-color="#1A74E2"/>
</linearGradient>
</defs>
</svg>
