<svg width="23" height="23" viewBox="0 0 23 23" fill="none" xmlns="http://www.w3.org/2000/svg">
<path d="M21.25 10C20.9185 10 20.6005 10.1317 20.3661 10.3661C20.1317 10.6005 20 10.9185 20 11.25V18.75C20 19.0815 19.8683 19.3995 19.6339 19.6339C19.3995 19.8683 19.0815 20 18.75 20H3.75C3.41848 20 3.10054 19.8683 2.86612 19.6339C2.6317 19.3995 2.5 19.0815 2.5 18.75V3.75C2.5 3.41848 2.6317 3.10054 2.86612 2.86612C3.10054 2.6317 3.41848 2.5 3.75 2.5H11.25C11.5815 2.5 11.8995 2.3683 12.1339 2.13388C12.3683 1.89946 12.5 1.58152 12.5 1.25C12.5 0.918479 12.3683 0.600537 12.1339 0.366116C11.8995 0.131696 11.5815 0 11.25 0H3.75C2.75544 0 1.80161 0.395088 1.09835 1.09835C0.395088 1.80161 0 2.75544 0 3.75V18.75C0 19.7446 0.395088 20.6984 1.09835 21.4016C1.80161 22.1049 2.75544 22.5 3.75 22.5H18.75C19.7446 22.5 20.6984 22.1049 21.4016 21.4016C22.1049 20.6984 22.5 19.7446 22.5 18.75V11.25C22.5 10.9185 22.3683 10.6005 22.1339 10.3661C21.8995 10.1317 21.5815 10 21.25 10Z" fill="white"/>
<path d="M16.2499 2.5H18.2249L10.3624 10.35C10.2453 10.4662 10.1523 10.6045 10.0888 10.7568C10.0253 10.9091 9.99268 11.0725 9.99268 11.2375C9.99268 11.4025 10.0253 11.5659 10.0888 11.7182C10.1523 11.8705 10.2453 12.0088 10.3624 12.125C10.4786 12.2422 10.6169 12.3352 10.7692 12.3986C10.9215 12.4621 11.0849 12.4947 11.2499 12.4947C11.4149 12.4947 11.5783 12.4621 11.7306 12.3986C11.883 12.3352 12.0212 12.2422 12.1374 12.125L19.9999 4.275V6.25C19.9999 6.58152 20.1316 6.89946 20.366 7.13388C20.6005 7.3683 20.9184 7.5 21.2499 7.5C21.5814 7.5 21.8994 7.3683 22.1338 7.13388C22.3682 6.89946 22.4999 6.58152 22.4999 6.25V1.25C22.4999 0.918479 22.3682 0.600537 22.1338 0.366116C21.8994 0.131696 21.5814 0 21.2499 0H16.2499C15.9184 0 15.6005 0.131696 15.366 0.366116C15.1316 0.600537 14.9999 0.918479 14.9999 1.25C14.9999 1.58152 15.1316 1.89946 15.366 2.13388C15.6005 2.3683 15.9184 2.5 16.2499 2.5V2.5Z" fill="white"/>
</svg>
