<svg width="40" height="45" viewBox="0 0 40 45" fill="none" xmlns="http://www.w3.org/2000/svg">
<path d="M18.1953 0.470264C19.2882 -0.155341 20.7118 -0.158167 21.8038 0.470264C27.2977 3.57458 32.7933 6.67403 38.2862 9.78023C39.3193 10.3622 40.0104 11.512 39.9999 12.7024V31.3792C40.0076 32.6189 39.2482 33.7962 38.1582 34.365C32.6824 37.4522 27.2095 40.5432 21.7346 43.6304C20.619 44.2682 19.1669 44.2191 18.0861 43.529C16.4445 42.5773 14.8 41.6303 13.1582 40.6796C12.8227 40.4796 12.4446 40.3204 12.2077 39.9951C12.4171 39.7128 12.7915 39.6777 13.0958 39.5544C13.781 39.3365 14.4104 38.9868 15.0399 38.6474C15.1991 38.5384 15.3935 38.5802 15.5461 38.6777C16.9499 39.4825 18.3413 40.3108 19.7498 41.108C20.0502 41.2815 20.3545 41.0512 20.6113 40.908C25.9848 37.871 31.3648 34.8455 36.7373 31.8076C36.9364 31.7119 37.0464 31.5006 37.0303 31.2825C37.034 25.1214 37.0312 18.9593 37.0322 12.7982C37.0549 12.5508 36.9117 12.3233 36.688 12.222C31.2312 9.14897 25.7772 6.07119 20.3214 2.99733C20.2268 2.93234 20.1149 2.89747 20.0002 2.89731C19.8854 2.89714 19.7734 2.93168 19.6787 2.99639C14.2228 6.07119 8.76974 9.1518 3.31388 12.2247C3.09095 12.3261 2.94134 12.5498 2.96787 12.7982C2.96881 18.9593 2.96787 25.1214 2.96787 31.2834C2.95841 31.3898 2.98178 31.4966 3.03483 31.5893C3.08788 31.682 3.16806 31.7562 3.26458 31.802C4.7205 32.6276 6.17831 33.4474 7.63518 34.2702C8.45592 34.7119 9.46364 34.9744 10.3679 34.636C11.1659 34.3498 11.7252 33.5355 11.71 32.6882C11.7175 26.5631 11.7062 20.437 11.7157 14.3128C11.6957 14.0409 11.9537 13.8163 12.218 13.8419C12.9176 13.8372 13.6181 13.8325 14.3176 13.8438C14.6096 13.8372 14.8106 14.1299 14.7744 14.4039C14.7716 20.5678 14.782 26.7318 14.7697 32.8957C14.7716 34.5385 14.0967 36.326 12.5772 37.1297C10.7053 38.0995 8.39155 37.8938 6.54221 36.964C4.94123 36.1649 3.41341 35.2218 1.84084 34.3658C0.748035 33.8001 -0.00755738 32.6182 0.000135121 31.3794V12.7024C-0.0113251 11.4873 0.707217 10.3167 1.77255 9.74318C7.24741 6.65346 12.7213 3.56139 18.1953 0.470264Z" fill="#1A74E2"/>
<path d="M22.9716 13.4078C25.3594 13.2541 27.9157 13.3167 30.0644 14.4931C31.728 15.3945 32.6503 17.2864 32.6797 19.1346C32.6332 19.3839 32.3726 19.5215 32.1346 19.5043C31.4418 19.5034 30.7489 19.5138 30.0561 19.4996C29.7622 19.5109 29.5914 19.24 29.5545 18.9802C29.3554 18.0958 28.8732 17.22 28.0408 16.7934C26.7631 16.1537 25.2815 16.1859 23.8883 16.1992C22.8711 16.2532 21.7774 16.3413 20.9157 16.9394C20.2541 17.3925 20.0532 18.3071 20.2893 19.0437C20.5119 19.5726 21.1224 19.7433 21.622 19.9006C24.4996 20.6532 27.549 20.5783 30.3716 21.5688C31.5403 21.9725 32.6835 22.7575 33.0835 23.9811C33.6067 25.621 33.3774 27.5812 32.2106 28.8977C31.2644 29.9811 29.8864 30.5707 28.5119 30.891C26.6835 31.2987 24.7859 31.309 22.9291 31.128C21.183 30.929 19.366 30.4702 18.0181 29.2806C16.8655 28.2798 16.3025 26.7204 16.3584 25.2153C16.3717 24.9612 16.6248 24.7839 16.8683 24.8048C17.566 24.7991 18.2636 24.7973 18.9613 24.8057C19.24 24.7858 19.4465 25.0266 19.4608 25.2893C19.5896 26.1318 19.9062 27.0161 20.6409 27.5157C22.0589 28.4305 23.838 28.3678 25.4616 28.3934C26.8067 28.3338 28.3166 28.3157 29.4143 27.4267C29.9934 26.9196 30.165 26.0712 30.0085 25.3414C29.839 24.7252 29.1944 24.4381 28.6408 24.2503C25.8001 23.3517 22.7166 23.6778 19.9034 22.6616C18.7613 22.2579 17.6569 21.4948 17.2181 20.3215C16.6058 18.6608 16.8864 16.6068 18.1754 15.3347C19.4323 14.0694 21.2466 13.5821 22.9716 13.4076V13.4078Z" fill="#1A74E2"/>
</svg>
