<svg width="40" height="45" viewBox="0 0 40 45" fill="none" xmlns="http://www.w3.org/2000/svg">
<path d="M20.2207 26.137C22.6566 26.137 24.6314 24.1623 24.6314 21.7263C24.6314 19.2904 22.6566 17.3156 20.2207 17.3156C17.7847 17.3156 15.8099 19.2904 15.8099 21.7263C15.8099 24.1623 17.7847 26.137 20.2207 26.137Z" fill="#1A74E2"/>
<path d="M39.3426 10.9148C37.919 8.45099 34.5011 7.43877 29.7135 8.05687C29.1061 8.13601 28.4818 8.24517 27.8479 8.37345C26.0405 3.25032 23.2259 0 20.0004 0C16.77 0 13.9518 3.26118 12.1447 8.39863C6.64703 7.30914 2.29419 8.08406 0.65741 10.9148C-0.973932 13.7396 0.515995 17.8803 4.18436 22.0837C0.515995 26.2871 -0.973933 30.4278 0.65733 33.2526C1.82461 35.2749 4.37141 36.2548 7.73321 36.2548C9.21572 36.2345 10.6928 36.0711 12.1439 35.7669C13.951 40.9054 16.7696 44.1674 20.0004 44.1674C23.2258 44.1674 26.0404 40.9171 27.8479 35.7939C28.4817 35.9222 29.106 36.0314 29.7135 36.1105C30.5768 36.2248 31.4465 36.2838 32.3173 36.2872C35.7395 36.2872 38.1926 35.2427 39.3426 33.2527C40.9739 30.428 39.4842 26.2872 35.8164 22.0838C39.4842 17.8803 40.9739 13.7396 39.3426 10.9148ZM30.0086 10.3182C30.7804 10.2147 31.558 10.1608 32.3367 10.1567C34.8672 10.1567 36.6526 10.8157 37.3698 12.0562C38.3821 13.8096 37.2364 16.9576 34.2542 20.4235C32.8125 19.0049 31.2682 17.6946 29.6339 16.503C29.4154 14.5135 29.0483 12.5431 28.5356 10.6084C29.0254 10.5147 29.5372 10.3796 30.0086 10.3182ZM23.8405 28.7364C22.5426 29.4858 21.2625 30.1486 20.0121 30.7309C18.7285 30.1336 17.4399 29.4755 16.1595 28.7364C14.8568 27.9843 13.6394 27.204 12.5064 26.4092C12.3814 25.0318 12.3119 23.5885 12.3119 22.0837C12.3119 20.5789 12.3814 19.1356 12.5064 17.7582C13.6394 16.9634 14.8568 16.1831 16.1595 15.431C17.434 14.6953 18.7168 14.0391 19.9945 13.4439C21.2526 14.0287 22.5343 14.6767 23.8405 15.431C25.1436 16.1833 26.3615 16.9638 27.4947 17.759C27.6197 19.1362 27.6891 20.5792 27.6891 22.0837C27.6891 23.5882 27.6197 25.0311 27.4947 26.4084C26.3615 27.2036 25.1436 27.9841 23.8405 28.7364ZM27.1089 29.4091C26.9109 30.6426 26.6486 31.865 26.3232 33.0712C25.1264 32.7407 23.9471 32.3504 22.7895 31.9016C23.5182 31.5259 24.2493 31.1319 24.9818 30.7091C25.7135 30.2868 26.4202 29.8517 27.1089 29.4091H27.1089ZM17.2233 31.906C16.0621 32.3546 14.879 32.7442 13.6785 33.0733C13.3526 31.8663 13.0901 30.643 12.892 29.4085C13.5812 29.8513 14.2881 30.2865 15.02 30.7091C15.7514 31.1315 16.4869 31.5264 17.2233 31.906H17.2233ZM10.1115 24.5939C9.13333 23.8055 8.19603 22.9677 7.30328 22.0837C8.19603 21.1997 9.13333 20.3618 10.1115 19.5733C10.0713 20.3971 10.0462 21.2323 10.0462 22.0837C10.0462 22.9351 10.0713 23.7703 10.1115 24.5939ZM12.8921 14.7589C13.0899 13.5266 13.3519 12.3055 13.677 11.1005C14.8801 11.4258 16.0657 11.8123 17.2292 12.2585C16.4909 12.6389 15.7536 13.0347 15.0202 13.4583C14.2882 13.8809 13.5812 14.3161 12.892 14.7589H12.8921ZM22.7907 12.2655C23.9479 11.8169 25.1269 11.4267 26.3233 11.0963C26.6487 12.3025 26.911 13.5248 27.109 14.7584C26.4202 14.3158 25.7135 13.8807 24.9819 13.4583C24.2498 13.0356 23.519 12.6409 22.7907 12.2654L22.7907 12.2655ZM29.8895 19.5742C30.8672 20.3624 31.8041 21.2 32.6966 22.0837C31.8041 22.9674 30.8672 23.805 29.8894 24.5932C29.9296 23.7698 29.9547 22.9349 29.9547 22.0837C29.9547 21.2325 29.9297 20.3975 29.8895 19.5742ZM20.0004 2.26567C22.0035 2.26567 24.1283 4.74372 25.6367 8.91173C23.7105 9.45259 21.8255 10.1312 19.9965 10.9423C18.1692 10.1335 16.2854 9.45878 14.3602 8.92344C15.8689 4.74815 17.9961 2.26567 20.0004 2.26567ZM2.63009 12.0562C3.33542 10.8351 5.14341 10.1804 7.69012 10.1804C8.96042 10.1983 10.2263 10.3337 11.4717 10.5849C10.9556 12.5273 10.5863 14.5058 10.3669 16.5035C8.73229 17.695 7.18782 19.0055 5.74604 20.4242C2.76335 16.9581 1.61759 13.8097 2.63009 12.0562ZM2.63009 32.1112C1.61759 30.3577 2.76335 27.2093 5.74604 23.7432C7.18788 25.1619 8.73235 26.4723 10.3669 27.6638C10.5865 29.6654 10.9568 31.6476 11.4747 33.5934C6.96259 34.4546 3.64782 33.8733 2.63009 32.1112ZM20.0004 41.9017C17.9955 41.9017 15.8678 39.4182 14.3589 35.241C16.2869 34.7085 18.1735 34.0358 20.0034 33.2283C21.8303 34.0379 23.7129 34.7154 25.6368 35.2555C24.1284 39.4235 22.0035 41.9017 20.0004 41.9017ZM37.3698 32.1112C36.448 33.7027 33.771 34.3381 30.0085 33.8492C29.5371 33.7878 29.0254 33.6527 28.5356 33.559C29.0483 31.6242 29.4154 29.6538 29.6339 27.6642C31.2683 26.4728 32.8126 25.1625 34.2543 23.744C37.2364 27.2098 38.3821 30.3578 37.3698 32.1112H37.3698Z" fill="#1A74E2"/>
</svg>
